<svg xmlns="http://www.w3.org/2000/svg" viewBox="0 0 629 435"><defs><style>.cls-1,.cls-10{fill:#f2f2f2;}.cls-1{stroke:#f2f2f2;stroke-width:2px;}.cls-1,.cls-2,.cls-3,.cls-4,.cls-5,.cls-7{stroke-miterlimit:10;}.cls-2{fill:#593320;}.cls-2,.cls-3{stroke:#1d1d1b;}.cls-3,.cls-5{fill:none;}.cls-4{fill:#8c5b3b;}.cls-4,.cls-5,.cls-7{stroke:#000;}.cls-6{fill:#0b0c0d;}.cls-7{fill:#d6ab83;}.cls-8,.cls-9{fill:#1d1d1b;}.cls-9{opacity:0.15;}.cls-11{fill:#683d2a;}.cls-12{fill:#87492a;}</style></defs><title>dog</title><g id="Camada_3" data-name="Camada 3"><path class="cls-1" d="M161,185.67l-2.53,2.79L91,263s56,69.33,60,70.67,84.67-6,84.67-6l48-37.33,18.67-38,13.33-66-7.33-26.67L239,151l-44,13.33Z"/><path class="cls-2" d="M603.67,127.6a19.39,19.39,0,0,0-1.79,1.34c-3.18,2.65-18.85,13.12-66.1,11.15-54-2.25-113.25,66-113.25,66s-2.25-16.5.75-23.5-25,32.75-26.25,44.25l-.11-.28s-5.39-12.22-2.64-33.22l-22.75,44s0-.48.08-1.34c.35-5.9,1.41-29.59-3.25-36-3.16-4.34-6.78-12.31-9.28-20l-3-14L593.1,70.92a10.12,10.12,0,0,1,10.58,1.86C614.21,82.32,635.27,106.71,603.67,127.6Z"/><path class="cls-3" d="M296.66,139.79c-2.17-10.09-6.19-18.31-13.13-21.78"/><path class="cls-4" d="M65,425c-29.67-6-10.33-66-10.33-66a331,331,0,0,0,3.15-33.91c4,1.83,6.68,2.74,6.68,2.74-.73,14.54,13.36,27.92,14.21,28.71-7-8.75-.46-22.71-.46-22.71,1,26.33,28.86,34.74,29.73,35-10.25-6.42-11.36-24.89-11.47-30.1.72,10.25,16.23,26.58,16.73,27.1-4.73-9.75,4.51-30,4.51-30,.6,5.26,4.16,11.14,7.72,15.85-2.52,5.23-5.27,9.77-8.14,12.65a93.25,93.25,0,0,0,13.34-6.44c.71.78,1.32,1.41,1.76,1.87a2.41,2.41,0,0,0,.81.81l-.81-.81a6.77,6.77,0,0,1-.87-2.39,56.81,56.81,0,0,0,10.52-8c1,11.75,2,24.72,3.59,38.91C151,437,94.7,431,65,425Z"/><path class="cls-3" d="M295.2,202.84c-2.84,13.17-.84,26.83-.84,26.83a180.87,180.87,0,0,0-7,34.35l-.32-4a25.11,25.11,0,0,0-6.26,2.36c-12.8,6.29-33.18,21.16-55.12,4.12-6.78-5.26-13.71-13.58-20.62-26.15,0,0,26.26-21.88,20.8-34.69,12.63-4,18.7-3.81,18.7-3.81s21.33,5.2,38.88-.72a33.68,33.68,0,0,0,13.42-8.06C296.25,197.3,295.66,200.7,295.2,202.84Z"/><path class="cls-4" d="M355.36,400c-21,21-68.66,7.33-69-20.34s5-46,5-46,3.27-10.06-1-31.89v0l-3-37.7h0a180.87,180.87,0,0,1,7-34.35s-2-13.66.84-26.83c.46-2.14,1-5.54,1.63-9.78a28.81,28.81,0,0,0,2.87-3.39s.07-.1.1-.16c3.55-5,5.86-11.53,6.23-20.17.72-17-3.58-25.54-9.37-29.55-10.24-7.09-25.13,0-25.13,0L117.84,223.52,53,258.79A134.4,134.4,0,0,0,48.7,242c-19.67-26.34-3.34-71.34-3.34-71.34C45.7,93.34,88.36,64,88.36,64,198.7-3,243.53,25.34,295.53,48.59s48.75,70,48.75,70C359.78,133.59,356,166,356,166c.13,3.67,1.33,8.79,3,14,2.5,7.64,6.12,15.61,9.28,20,4.66,6.4,3.6,30.09,3.25,36,0,.86-.08,1.34-.08,1.34s-7.5,54-1.17,69.33S376.36,379,355.36,400Z"/><path class="cls-5" d="M138.36,115C111.7,152.34,118.7,219.67,118.7,219.67s-.36,1.41-.86,3.85"/><path class="cls-6" d="M225.83,205.65c5.46,12.81-20.8,34.69-20.8,34.69l-.8-.6c-8.39-6.35-14.23-11.76-18.09-16.37C203.19,213.94,216.36,208.64,225.83,205.65Z"/><path class="cls-3" d="M174.42,277c5.24,4.36,36.43,27,65.86-3.3"/><path class="cls-7" d="M290.36,302s-3-.67-3.33,9.33-9.33,20.33-9.33,20.33c2.33-5-3.34-9.66-3.34-9.66-8.66,7-17.66,34.33-17.66,34.33,2-19.67-6.67-21.67-6.67-21.67-14,5-23,33.34-23,33.34,0-12-15-22-15-22-12.67,5.33-16.33,35.66-16.33,35.66C195,366.34,178.36,353,178.36,353c-6.66,2.33-7.66,34-7.66,34-15.34-6.34-8.34-47.34-8.34-47.34-11.66,13.67-12,34.67-12,34.67-8-4.81-2.15-33.35-1.69-35.54-.89,3.9-3.36,7.48-6.56,10.63a56.81,56.81,0,0,1-10.52,8l-.89.52a93.25,93.25,0,0,1-13.34,6.44c2.87-2.88,5.62-7.42,8.14-12.65a180.61,180.61,0,0,0,8.78-22.91c1.61-5.08,2.85-9.49,3.6-12.28.53-2,.82-3.16.82-3.16-.43.37-.85.71-1.28,1a.13.13,0,0,1-.06.05,16.36,16.36,0,0,1-10.61,3.44,1.16,1.16,0,0,1-1-1.7c2-4,2.52-11.38,2.38-19.29,0-2.27-.14-4.58-.27-6.86,0-.39,0-.77-.07-1.16s0-.62-.07-.94,0-.62-.07-.93c-.13-1.55-.27-3.1-.44-4.6,0-.3-.06-.6-.1-.9s-.07-.6-.1-.89l-.18-1.52c-.09-.65-.17-1.28-.25-1.91s-.15-1.09-.23-1.62q-.16-1.19-.33-2.28c0-.24-.07-.48-.11-.72s-.1-.63-.15-.93-.06-.43-.1-.64c-.27-1.67-.51-3.07-.7-4.11,0-.26-.09-.5-.13-.71,0,0,0-.06,0-.08v0a.63.63,0,0,1,.9-.54c1,.56,2,1.09,3,1.61s2,1,2.91,1.48q2.18,1.08,4.26,2l1.39.62c1.32.59,2.61,1.13,3.88,1.64l1.33.53c.88.34,1.76.67,2.61,1q.65.24,1.29.45l1.26.42,1.25.39.12,0c1.2.37,2.37.7,3.52,1l.1,0c.76.19,1.51.37,2.25.53l1.14.24c.76.15,1.51.28,2.24.4h0a44.41,44.41,0,0,0,7.91.59c.23,0,.45,0,.68,0l1.31-.07-1.22.28s3,27-3,31c0,0,7-.33,15.33-12.33,0,0,5.34,16,3,20.67,0,0,10.34-3.67,19.67-24,0,0,4,15.33,11.33,16,0,0,.67-7.67,6.67-12.67,0,0,11-3,14.33,4.33,0,0,20.67-29.66,31.34-26.33,0,0,5,4.32,1.34,8,.44-.35,15.23-12.13,13.73-21A25.11,25.11,0,0,1,287,260l.32,4h0l3,37.7v0Z"/><path class="cls-3" d="M148.67,338.8s0,0,0,0l0-.11"/><path class="cls-4" d="M128.16,296.86a67.33,67.33,0,0,1-13.63-10c-7.85-7.85-.33-14.34,2.51-16.35l.27-.19.16-.11c.35-.23.56-.35.56-.35,1.89-1.5,3.92-2.94,5.81-4.37a.61.61,0,0,1,1,.37,1.61,1.61,0,0,0,0,.19v0s0,0,0,.08c0,.21.08.45.13.71.19,1,.43,2.44.7,4.11,0,.21.07.42.1.64s.1.61.15.93.07.48.11.72q.16,1.1.33,2.28c.08.53.15,1.07.23,1.62s.16,1.26.25,1.91l.18,1.52c0,.29.07.59.1.89s.07.6.1.9c.17,1.5.31,3,.44,4.6,0,.31,0,.62.07.93s.05.63.07.94.05.77.07,1.16C128,292.28,128.12,294.59,128.16,296.86Z"/><path class="cls-3" d="M267,283.33c3.65-3.67-1.34-8-1.34-8C255,272,234.36,301.67,234.36,301.67,231,294.34,220,297.34,220,297.34c-6,5-6.67,12.67-6.67,12.67C206,309.34,202,294,202,294c-9.33,20.33-19.67,24-19.67,24,2.34-4.67-3-20.67-3-20.67C171,309.34,164,309.67,164,309.67c6-4,3-31,3-31l1.22-.28h0l6.14-1.38,4.72-1C201,267.44,205,240.34,205,240.34c6.91,12.57,13.84,20.89,20.62,26.15,21.94,17,42.32,2.17,55.12-4.12C282.27,271.2,267.48,283,267,283.33Z"/><path class="cls-3" d="M205,240.34s-4,27.1-25.89,35.63l-4.72,1-6.14,1.38h0l-1.31.07c-.23,0-.45,0-.68,0a44.41,44.41,0,0,1-7.91-.59h0c-.73-.12-1.48-.25-2.24-.4l-1.14-.24c-.74-.16-1.49-.34-2.25-.53l-.1,0c-1.15-.29-2.32-.62-3.52-1l-.12,0-1.25-.39-1.26-.42q-.64-.21-1.29-.45c-.85-.3-1.73-.63-2.61-1l-1.33-.53c-1.27-.51-2.56-1-3.88-1.64l-1.39-.62q-2.09-1-4.26-2c-1-.47-1.93-1-2.91-1.48s-2-1.05-3-1.61l-.3-.16a.63.63,0,0,1-.08-1c20.36-15.73,37.76-27.53,52.73-36.35l1.46-.85,1.76-1,1.62-.93,3.19-1.78h0c3.86,4.61,9.7,10,18.09,16.37Z"/><path class="cls-2" d="M306,169.34c-.37,8.64-2.68,15.21-6.23,20.17,0,.06-.07.11-.1.16a28.81,28.81,0,0,1-2.87,3.39,33.68,33.68,0,0,1-13.42,8.06c-17.55,5.92-38.88.72-38.88.72s-6.07-.15-18.7,3.81c-9.47,3-22.64,8.29-39.69,17.72h0l-3.19,1.78-1.62.93-1.76,1-1.46.85a489.31,489.31,0,0,0-53.61,36.6c-2.1,1.63-3.07,2.59-5.23,4.3l-1.79,1.35-.16.11-.27.19c-2.84,2-10.36,8.5-2.51,16.35a67.33,67.33,0,0,0,13.63,10c.14,7.91-.39,15.31-2.38,19.29a1.16,1.16,0,0,0,1,1.7,16.36,16.36,0,0,0,10.61-3.44.13.13,0,0,0,.06-.05c.43-.31.85-.65,1.28-1,0,0-.29,1.17-.82,3.16-.75,2.79-2,7.2-3.6,12.28a180.61,180.61,0,0,1-8.78,22.91c-3.56-4.71-7.12-10.59-7.72-15.85,0,0-9.24,20.24-4.51,30-.5-.52-16-16.85-16.73-27.1,0-.89,0-1.39,0-1.39a9.23,9.23,0,0,0,0,1.39c.11,5.21,1.22,23.68,11.47,30.1-.87-.25-28.75-8.66-29.73-35,0,0-6.49,14,.46,22.71-.85-.79-14.94-14.17-14.21-28.71,0,0-2.68-.91-6.68-2.74-8-3.68-21.47-11.07-29.32-22.26,0,0-15-22.5,7-34.5L53,258.79l64.79-35.27,153.69-83.68s14.89-7.14,25.13,0C302.45,143.8,306.75,152.36,306,169.34Z"/><path class="cls-3" d="M96.54,338.73a9.23,9.23,0,0,1,0-1.39S96.52,337.84,96.54,338.73Z"/><path class="cls-3" d="M133.27,360.58a2.41,2.41,0,0,1-.81-.81Z"/><path class="cls-3" d="M132.46,359.77c-.44-.46-1-1.09-1.76-1.87l.89-.52A6.77,6.77,0,0,0,132.46,359.77Z"/><path class="cls-8" d="M139.36,165.34c3.8.79,7.48,1.51,11.18,2.07s7.36,1,11,1.31c.92.09,1.84.17,2.76.19l2.77.15c1.85,0,3.7.12,5.56,0,3.74.05,7.45-.32,11.35-.43A37.79,37.79,0,0,1,173,172.24a47.36,47.36,0,0,1-5.83.62,53.5,53.5,0,0,1-5.86-.14,49.17,49.17,0,0,1-11.46-2.25A36.86,36.86,0,0,1,139.36,165.34Z"/><path class="cls-8" d="M161.36,110a40.52,40.52,0,0,1,9.13,3.09,45.44,45.44,0,0,1,8.31,5,41.54,41.54,0,0,1,3.67,3.23,31.69,31.69,0,0,1,3.15,3.75,25.83,25.83,0,0,1,2.4,4.26,20.27,20.27,0,0,1,1.33,4.66,35.34,35.34,0,0,0-2.2-4.21,36.33,36.33,0,0,0-2.77-3.76,44.8,44.8,0,0,0-6.81-6.35,74.43,74.43,0,0,0-7.82-5.21C167,112.9,164.24,111.42,161.36,110Z"/><path class="cls-8" d="M250,104c-2.37,1.9-4.76,3.73-7.13,5.57s-4.71,3.69-7,5.63c-1.15.94-2.25,1.94-3.34,2.95s-2.13,2.05-3.15,3.12c-2,2.17-3.88,4.48-4.74,7.4a10.67,10.67,0,0,1,1.11-4.47,21.67,21.67,0,0,1,2.44-3.94,43,43,0,0,1,6.39-6.59,68,68,0,0,1,7.37-5.38A56.14,56.14,0,0,1,250,104Z"/><path class="cls-3" d="M259,170.34s25.5-9.5,25,8-.62,21.88-.62,22.88"/><path class="cls-3" d="M274.36,157.34s15.34-12.67,21-.33c5.55,12.08,6,29.6,4.44,32.5"/><line class="cls-3" x1="359.08" y1="180.06" x2="356.03" y2="166.01"/><path class="cls-9" d="M133.75,267.5s37-15.75,47-21.25,43.5-9,43.5-9,52-3.75,56.5-3.75,21.5-5,27.25-11.25,13-27.5,6.5-35.25-8.5-13.75-8.5-13.75S305,192.5,287,201s-43.5.25-43.5.25-46.75,3.25-115.25,61.25c0,0-15.25,8.5-16,16.5Z"/><path class="cls-10" d="M138.44,149.85c-5.05,4.83-8.66,12.87-10.09,22.17-1.58,10.35-2.76,23.91.82,29,3.9,5.54,11.94,1.82,17.24-1.58a29,29,0,0,0,8-8.16c4.45-6.51,12.88-18,17.34-18.75a8.69,8.69,0,0,0,4.07-1.72c4.93-3.87,13.63-13.66,2.1-28.79C167.16,127.83,148.8,139.93,138.44,149.85Z"/><path class="cls-9" d="M144.75,168.75s19,2.63,35.25,1.13c0,0,2.5,3.13-5.25,3.89S144.75,168.75,144.75,168.75Z"/><path class="cls-9" d="M189.13,133.88c-3.5-15.75-27.87-24-27.87-24Z"/><path class="cls-9" d="M225.13,128.13s14.38-22.12,24.38-24C249.5,104.13,235.5,132,225.13,128.13Z"/><path class="cls-9" d="M174.5,276.5s32.5,29.75,65-2.75c0,0,4.75,5.5-4,10.75s-15.75,11-22,10.25c-5.06-.61-13.41-4.17-20-5.23a17.32,17.32,0,0,1-8.57-4Z"/><path class="cls-9" d="M166.16,308.77s5.87-2.11,13.31-10.45c0,0,2.41,3.9,1.12,4.9S171.53,308.29,166.16,308.77Z"/><path class="cls-9" d="M202.33,294.5s-.17,17.83-14.67,23.67c0,0-1,.9-5.48.46C182.19,318.63,200.35,302.44,202.33,294.5Z"/><path class="cls-9" d="M214.5,309.75s6.75-10.5,8.75-10.5,1.25-2.75,1.25-2.75l-4.5.63L215.88,302S213,307,214.5,309.75Z"/><path class="cls-9" d="M234.25,302.38s28.88-26.62,31-25.12a27.11,27.11,0,0,1,3.25,2.63l-2.75-4.75-4.12.25-5.12,2.38-17.12,16.63Z"/><path class="cls-9" d="M198.75,258.08l1.75-3,4.33-12.75-2.83,14s-2.5,11.42-7.42,16.33-18.92,4.67-18.92,4.67S194.75,269.67,198.75,258.08Z"/><path class="cls-9" d="M205.5,240.88s2.88,17.13,6.88,19.88,11.75,5.13,11.75,5.13l-15-19.25Z"/><path class="cls-11" d="M111,278s-9.5-13.25-2.25-16.75,14-8.25,20.25-10.75,12.5-10.75,16.75-13S160.5,226.75,163,224s14-8.5,17.5-8.5,6.5-1.5,10.25-3.25,8.25-8.5,15.5-11,11.5-5.25,17-5.25,9.25,1,10.5,2,1.75,5,1.75,5l-6.42,1.58-13.67,4.67-5.25,2.33-8.92,3.75-6.67,3.25L184,224.33l-15.42,9.25-23.83,16.08-9.42,6.75-14.42,10.92-4.42,3.5-3,2.25-1.42,2.5Z"/><path class="cls-11" d="M107.75,355s-.87-11.62,6.38-17.87,4.75-2.87,4.75-2.87-.25,4.75,3.75,9.88c0,0-.75-7.25,2.13-9.12,2.16-1.41-5.6-7.59-9.62-10.6a15.22,15.22,0,0,1-3-3.08c-2.18-2.89-13.94-16.75-41.89-.45C70,321,67,332.63,70,338.38s2.88,9,2.88,9,1.75-14.87,4.5-18.75c0,0,3,.75,4,5.88S85,351.38,91.5,356.63s8,6.88,9,7-7-9.12-6.87-19.25,3.13-10.12,3.13-10.12,1,14.5,10.5,20.75"/><path class="cls-11" d="M368,188.67s8.33,23,6,36,19.33-36.33,19.33-36.33,1.33,15.33,3.33,21.33a19.54,19.54,0,0,1,.21,11.33l22.63-40.12s7.63-6.62,6.63,1.13-1.87,20.25-1.87,20.25,10-15.5,21.75-23.37,12.5-14.75,12.5-14.75-4.75-8.12-15.12-5.25S410.81,171.82,407.63,175c-.37.38-3.75,12.5-11.75,12S366.63,175,368,188.67Z"/><path class="cls-11" d="M559,89.75s37.25-5,39.25,3.75,4.5,16,.25,20.75-1.5,8.5-16.5,10.25-24.5,5-27.75-7.5-8.75-21-1-25,7.5-1.25,7.5-1.25"/><path class="cls-9" d="M261,169.88s16.88-6.5,21,1.38,1.13,29.5,1.13,29.5S286.25,198,287,195s-.37-21-2.12-23.5-4.87-6.12-7.62-6.37S261,169.88,261,169.88Z"/><path class="cls-9" d="M276.33,155.58s7-7.25,9.5-6.25c0,0,10-2.42,12.75,9.5s2.83,28.25,2.83,28.25l-1,1.25V185.5l.17-2.33v-2.25l.08-2.58-.75-2.67-.67-5.92-.5-4.33-.92-2.83-1.42-3.75-1.25-2.5-1.25-1.92-2.17-2-1.42-.83-1.58-.42-4.5.42-1.67.58-2.75,1.42Z"/><path class="cls-9" d="M578.42,106.67s13.67-7.42,17.58.5c3.13,6.33-1.35,19.52-3.28,24.56-.44,1.15,1.16,2.09,1.86,1.07a1.86,1.86,0,0,0,.17-.3,51.47,51.47,0,0,0,1.67-5.83l1-4.22v-.06c.09-.51,1.24-7.32,1.16-7.72s0-3.31,0-3.83a1,1,0,0,0,0-.17l-.61-4.35a1.09,1.09,0,0,0-.25-.55l-1.9-2.24a1.09,1.09,0,0,0-.56-.35L591,102.11l-.24,0-4-.08a1.09,1.09,0,0,0-.31,0l-5,1.37a1.09,1.09,0,0,0-.52.32Z"/><path class="cls-9" d="M588.75,85.44s12.88-2.12,16,2.19,2.88,6,2.88,6l.06,18.69-1.31,13.38a4.87,4.87,0,0,0,1.94-2.5,56,56,0,0,0,.94-6.44c.13-2.25.19-2.5.25-5.62s-.12-4.37-.12-6.62-.5-4.69,0-6.19a9.27,9.27,0,0,0,.81-4.12,10.49,10.49,0,0,0-1.69-6.31c-1.44-2.25-1.87-3.31-4.31-3.69a52,52,0,0,0-6.87-.81c-1.87,0-8.94,2-8.94,2"/><path class="cls-9" d="M259.33,330.67c-3.74-.47,6.17-4.5,8.17-7.83s3.33-8.83,4.17-12.5a47,47,0,0,0,.67-10.33c0-2.5-1.33-6.33-1.33-3.33S262,331,259.33,330.67Z"/><path class="cls-12" d="M76.5,119.75c-7.25,2-20,18.75-17.5,24.25s-5,19.5-3.75,35.25,3,22.25,8.25,29.75,1.75,12.75,16.75,15.25,25.75,5.75,29.5,0S115,217,115.25,206s.25-10.5-2.5-24.5-4-17.25-.5-29,8.5-17.25,6-27-.75-14.75-13.75-16-25.75,4.75-27.5,8.25S76.5,119.75,76.5,119.75Z"/><path class="cls-12" d="M65,160.5c-5.75,2.5-14.75,7.5-17,13.25S42.5,195,42.75,200s1.75,26.25,4.5,30.5,5,14.75,5.75,15.25,5.5,5.75,11.5,2.25,6.25-5,11.75-10.5S91.75,231,96,229.25s10.75-4.5,12.25-4.75,4.5.25,5.5-.5,4.25-3.5,4.25-6.25-.75-2.75-3.5-13-9-19.5-8.75-25.75S66,160.75,66,160.75Z"/><path class="cls-12" d="M67.25,360.25c-4.25,12-9.5,44-4.25,48s1.75,6.5,16.75,8,15.5,5,31.75-1.75,21.25,1.75,25-11,7.25-11.5,4-23.25-5.25-17-7.75-18.25-2.75-5-7.25-.5-5,5.25-9.75,9.5-15,10.25-17.75,8-11-11.5-16-16.25S67.25,360.25,67.25,360.25Z"/><path class="cls-12" d="M307,139s-3.5,17,3.5,21,14.5,32,11,41.5-2,18.5-9.5,36.5-18,13.5-15,32-5.5,43.5,2,60,8,38.5,23,43.5,23,9,29.5,3,8-2.5,11-16.5,4-14,3-29,0-9.5-5.5-26.5-9.5-15.5-6-35,9-8,8-36-5.5-39-7.5-47,0-26.5-10.5-42.5-19.5-15.5-27.5-16.5S307,139,307,139Z"/><path class="cls-3" d="M603.67,127.6a19.39,19.39,0,0,0-1.79,1.34c-3.18,2.65-18.85,13.12-66.1,11.15-54-2.25-113.25,66-113.25,66s-2.25-16.5.75-23.5-25,32.75-26.25,44.25l-.11-.28s-5.39-12.22-2.64-33.22l-22.75,44s0-.48.08-1.34c.35-5.9,1.41-29.59-3.25-36-3.16-4.34-6.78-12.31-9.28-20l-3-14L593.1,70.92a10.12,10.12,0,0,1,10.58,1.86C614.21,82.32,635.27,106.71,603.67,127.6Z"/><path class="cls-3" d="M296.66,139.79c-2.17-10.09-6.19-18.31-13.13-21.78"/><path class="cls-3" d="M65,425c-29.67-6-10.33-66-10.33-66a331,331,0,0,0,3.15-33.91c4,1.83,6.68,2.74,6.68,2.74-.73,14.54,13.36,27.92,14.21,28.71-7-8.75-.46-22.71-.46-22.71,1,26.33,28.86,34.74,29.73,35-10.25-6.42-11.36-24.89-11.47-30.1.72,10.25,16.23,26.58,16.73,27.1-4.73-9.75,4.51-30,4.51-30,.6,5.26,4.16,11.14,7.72,15.85-2.52,5.23-5.27,9.77-8.14,12.65a93.25,93.25,0,0,0,13.34-6.44c.71.78,1.32,1.41,1.76,1.87a2.41,2.41,0,0,0,.81.81l-.81-.81a6.77,6.77,0,0,1-.87-2.39,56.81,56.81,0,0,0,10.52-8c1,11.75,2,24.72,3.59,38.91C151,437,94.7,431,65,425Z"/><path class="cls-3" d="M295.2,202.84c-2.84,13.17-.84,26.83-.84,26.83a180.87,180.87,0,0,0-7,34.35l-.32-4a25.11,25.11,0,0,0-6.26,2.36c-12.8,6.29-33.18,21.16-55.12,4.12-6.78-5.26-13.71-13.58-20.62-26.15,0,0,26.26-21.88,20.8-34.69,12.63-4,18.7-3.81,18.7-3.81s21.33,5.2,38.88-.72a33.68,33.68,0,0,0,13.42-8.06C296.25,197.3,295.66,200.7,295.2,202.84Z"/><path class="cls-3" d="M355.36,400c-21,21-68.66,7.33-69-20.34s5-46,5-46,3.27-10.06-1-31.89v0l-3-37.7h0a180.87,180.87,0,0,1,7-34.35s-2-13.66.84-26.83c.46-2.14,1-5.54,1.63-9.78a28.81,28.81,0,0,0,2.87-3.39s.07-.1.1-.16c3.55-5,5.86-11.53,6.23-20.17.72-17-3.58-25.54-9.37-29.55-10.24-7.09-25.13,0-25.13,0L117.84,223.52,53,258.79A134.4,134.4,0,0,0,48.7,242c-19.67-26.34-3.34-71.34-3.34-71.34C45.7,93.34,88.36,64,88.36,64,198.7-3,243.53,25.34,295.53,48.59s48.75,70,48.75,70C359.78,133.59,356,166,356,166c.13,3.67,1.33,8.79,3,14,2.5,7.64,6.12,15.61,9.28,20,4.66,6.4,3.6,30.09,3.25,36,0,.86-.08,1.34-.08,1.34s-7.5,54-1.17,69.33S376.36,379,355.36,400Z"/><path class="cls-3" d="M138.36,115C111.7,152.34,118.7,219.67,118.7,219.67s-.36,1.41-.86,3.85"/><path class="cls-3" d="M205,240.34l-.8-.6c-8.39-6.35-14.23-11.76-18.09-16.37,17.05-9.43,30.22-14.73,39.69-17.72C231.29,218.46,205,240.34,205,240.34Z"/><path class="cls-3" d="M174.42,277c5.24,4.36,36.43,27,65.86-3.3"/><path class="cls-3" d="M290.36,302s-3-.67-3.33,9.33-9.33,20.33-9.33,20.33c2.33-5-3.34-9.66-3.34-9.66-8.66,7-17.66,34.33-17.66,34.33,2-19.67-6.67-21.67-6.67-21.67-14,5-23,33.34-23,33.34,0-12-15-22-15-22-12.67,5.33-16.33,35.66-16.33,35.66C195,366.34,178.36,353,178.36,353c-6.66,2.33-7.66,34-7.66,34-15.34-6.34-8.34-47.34-8.34-47.34-11.66,13.67-12,34.67-12,34.67-8-4.81-2.15-33.35-1.69-35.54-.89,3.9-3.36,7.48-6.56,10.63a56.81,56.81,0,0,1-10.52,8l-.89.52a93.25,93.25,0,0,1-13.34,6.44c2.87-2.88,5.62-7.42,8.14-12.65a180.61,180.61,0,0,0,8.78-22.91c1.61-5.08,2.85-9.49,3.6-12.28.53-2,.82-3.16.82-3.16-.43.37-.85.71-1.28,1a.13.13,0,0,1-.06.05,16.36,16.36,0,0,1-10.61,3.44,1.16,1.16,0,0,1-1-1.7c2-4,2.52-11.38,2.38-19.29,0-2.27-.14-4.58-.27-6.86,0-.39,0-.77-.07-1.16s0-.62-.07-.94,0-.62-.07-.93c-.13-1.55-.27-3.1-.44-4.6,0-.3-.06-.6-.1-.9s-.07-.6-.1-.89l-.18-1.52c-.09-.65-.17-1.28-.25-1.91s-.15-1.09-.23-1.62q-.16-1.19-.33-2.28c0-.24-.07-.48-.11-.72s-.1-.63-.15-.93-.06-.43-.1-.64c-.27-1.67-.51-3.07-.7-4.11,0-.26-.09-.5-.13-.71,0,0,0-.06,0-.08v0a.63.63,0,0,1,.9-.54c1,.56,2,1.09,3,1.61s2,1,2.91,1.48q2.18,1.08,4.26,2l1.39.62c1.32.59,2.61,1.13,3.88,1.64l1.33.53c.88.34,1.76.67,2.61,1q.65.24,1.29.45l1.26.42,1.25.39.12,0c1.2.37,2.37.7,3.52,1l.1,0c.76.19,1.51.37,2.25.53l1.14.24c.76.15,1.51.28,2.24.4h0a44.41,44.41,0,0,0,7.91.59c.23,0,.45,0,.68,0l1.31-.07-1.22.28s3,27-3,31c0,0,7-.33,15.33-12.33,0,0,5.34,16,3,20.67,0,0,10.34-3.67,19.67-24,0,0,4,15.33,11.33,16,0,0,.67-7.67,6.67-12.67,0,0,11-3,14.33,4.33,0,0,20.67-29.66,31.34-26.33,0,0,5,4.32,1.34,8,.44-.35,15.23-12.13,13.73-21A25.11,25.11,0,0,1,287,260l.32,4h0l3,37.7v0Z"/><path class="cls-3" d="M148.67,338.8s0,0,0,0l0-.11"/><path class="cls-3" d="M128.16,296.86a67.33,67.33,0,0,1-13.63-10c-7.85-7.85-.33-14.34,2.51-16.35l.27-.19.16-.11c.35-.23.56-.35.56-.35,1.89-1.5,3.92-2.94,5.81-4.37a.61.61,0,0,1,1,.37,1.61,1.61,0,0,0,0,.19v0s0,0,0,.08c0,.21.08.45.13.71.19,1,.43,2.44.7,4.11,0,.21.07.42.1.64s.1.61.15.93.07.48.11.72q.16,1.1.33,2.28c.08.53.15,1.07.23,1.62s.16,1.26.25,1.91l.18,1.52c0,.29.07.59.1.89s.07.6.1.9c.17,1.5.31,3,.44,4.6,0,.31,0,.62.07.93s.05.63.07.94.05.77.07,1.16C128,292.28,128.12,294.59,128.16,296.86Z"/><path class="cls-3" d="M267,283.33c3.65-3.67-1.34-8-1.34-8C255,272,234.36,301.67,234.36,301.67,231,294.34,220,297.34,220,297.34c-6,5-6.67,12.67-6.67,12.67C206,309.34,202,294,202,294c-9.33,20.33-19.67,24-19.67,24,2.34-4.67-3-20.67-3-20.67C171,309.34,164,309.67,164,309.67c6-4,3-31,3-31l1.22-.28h0l6.14-1.38,4.72-1C201,267.44,205,240.34,205,240.34c6.91,12.57,13.84,20.89,20.62,26.15,21.94,17,42.32,2.17,55.12-4.12C282.27,271.2,267.48,283,267,283.33Z"/><path class="cls-3" d="M205,240.34s-4,27.1-25.89,35.63l-4.72,1-6.14,1.38h0l-1.31.07c-.23,0-.45,0-.68,0a44.41,44.41,0,0,1-7.91-.59h0c-.73-.12-1.48-.25-2.24-.4l-1.14-.24c-.74-.16-1.49-.34-2.25-.53l-.1,0c-1.15-.29-2.32-.62-3.52-1l-.12,0-1.25-.39-1.26-.42q-.64-.21-1.29-.45c-.85-.3-1.73-.63-2.61-1l-1.33-.53c-1.27-.51-2.56-1-3.88-1.64l-1.39-.62q-2.09-1-4.26-2c-1-.47-1.93-1-2.91-1.48s-2-1.05-3-1.61l-.3-.16a.63.63,0,0,1-.08-1c20.36-15.73,37.76-27.53,52.73-36.35l1.46-.85,1.76-1,1.62-.93,3.19-1.78h0c3.86,4.61,9.7,10,18.09,16.37Z"/><path class="cls-3" d="M306,169.34c-.37,8.64-2.68,15.21-6.23,20.17,0,.06-.07.11-.1.16a28.81,28.81,0,0,1-2.87,3.39,33.68,33.68,0,0,1-13.42,8.06c-17.55,5.92-38.88.72-38.88.72s-6.07-.15-18.7,3.81c-9.47,3-22.64,8.29-39.69,17.72h0l-3.19,1.78-1.62.93-1.76,1-1.46.85a489.31,489.31,0,0,0-53.61,36.6c-2.1,1.63-3.07,2.59-5.23,4.3l-1.79,1.35-.16.11-.27.19c-2.84,2-10.36,8.5-2.51,16.35a67.33,67.33,0,0,0,13.63,10c.14,7.91-.39,15.31-2.38,19.29a1.16,1.16,0,0,0,1,1.7,16.36,16.36,0,0,0,10.61-3.44.13.13,0,0,0,.06-.05c.43-.31.85-.65,1.28-1,0,0-.29,1.17-.82,3.16-.75,2.79-2,7.2-3.6,12.28a180.61,180.61,0,0,1-8.78,22.91c-3.56-4.71-7.12-10.59-7.72-15.85,0,0-9.24,20.24-4.51,30-.5-.52-16-16.85-16.73-27.1,0-.89,0-1.39,0-1.39a9.23,9.23,0,0,0,0,1.39c.11,5.21,1.22,23.68,11.47,30.1-.87-.25-28.75-8.66-29.73-35,0,0-6.49,14,.46,22.71-.85-.79-14.94-14.17-14.21-28.71,0,0-2.68-.91-6.68-2.74-8-3.68-21.47-11.07-29.32-22.26,0,0-15-22.5,7-34.5L53,258.79l64.79-35.27,153.69-83.68s14.89-7.14,25.13,0C302.45,143.8,306.75,152.36,306,169.34Z"/><path class="cls-3" d="M96.54,338.73a9.23,9.23,0,0,1,0-1.39S96.52,337.84,96.54,338.73Z"/><path class="cls-3" d="M133.27,360.58a2.41,2.41,0,0,1-.81-.81Z"/><path class="cls-3" d="M132.46,359.77c-.44-.46-1-1.09-1.76-1.87l.89-.52A6.77,6.77,0,0,0,132.46,359.77Z"/><path class="cls-8" d="M139.36,165.34c3.8.79,7.48,1.51,11.18,2.07s7.36,1,11,1.31c.92.09,1.84.17,2.76.19l2.77.15c1.85,0,3.7.12,5.56,0,3.74.05,7.45-.32,11.35-.43A37.79,37.79,0,0,1,173,172.24a47.36,47.36,0,0,1-5.83.62,53.5,53.5,0,0,1-5.86-.14,49.17,49.17,0,0,1-11.46-2.25A36.86,36.86,0,0,1,139.36,165.34Z"/><path class="cls-3" d="M161.36,110s23.33,7.33,28,24"/><path class="cls-3" d="M250,104s-24,14-25.33,24.67"/><path class="cls-3" d="M259,170.34s25.5-9.5,25,8-.62,21.88-.62,22.88"/><path class="cls-3" d="M274.36,157.34s15.34-12.67,21-.33c5.55,12.08,6,29.6,4.44,32.5"/><line class="cls-3" x1="359.08" y1="180.06" x2="356.03" y2="166.01"/><path class="cls-3" d="M588,85.84s17.5-5,19.5,7-1.14,33-1.14,33"/><path class="cls-3" d="M577,107.34s21.12-11.08,20,5.5c-1,14.75-5,21-5,21"/><path class="cls-8" d="M72.05,113.32l-2.33,14.33c-.75,4.78-1.55,9.55-2.21,14.33s-1.36,9.57-2,14.37c-.28,2.4-.59,4.8-.79,7.21s-.43,4.81-.65,7.23c0-4.84.26-9.69.67-14.51s1.07-9.63,1.73-14.43S68,132.27,69,127.52,70.87,118,72.05,113.32Z"/><path class="cls-8" d="M85.63,161.52c-.77,2.32-1.53,4.64-2.21,7s-1.39,4.68-2,7c-1.25,4.71-2.43,9.44-3.3,14.23a128.78,128.78,0,0,0-2,14.45c-.11,1.21-.12,2.43-.19,3.64,0,.61-.06,1.22-.07,1.82l0,1.82,0,1.83v.91l.08.91.32,3.65a63.16,63.16,0,0,1-1-14.63,113.19,113.19,0,0,1,1.78-14.59q1.43-7.21,3.54-14.25A130.64,130.64,0,0,1,85.63,161.52Z"/><path class="cls-8" d="M109,112.86c-.77,2.32-1.53,4.64-2.21,7s-1.39,4.68-2,7c-1.25,4.71-2.43,9.44-3.3,14.23a128.78,128.78,0,0,0-2,14.45c-.11,1.21-.12,2.43-.19,3.64,0,.61-.06,1.22-.07,1.82l0,1.82,0,1.83v.91l.08.91.32,3.65a63.15,63.15,0,0,1-1-14.63,113.18,113.18,0,0,1,1.78-14.59q1.43-7.21,3.54-14.25A130.65,130.65,0,0,1,109,112.86Z"/><path class="cls-8" d="M322.91,122.86a130.65,130.65,0,0,1,5,13.81q2.12,7,3.54,14.25a113.18,113.18,0,0,1,1.78,14.59,63.15,63.15,0,0,1-1,14.63l.32-3.65.08-.91v-.91l0-1.83,0-1.82c0-.61,0-1.22-.07-1.82-.07-1.22-.08-2.43-.19-3.64a128.78,128.78,0,0,0-2-14.45c-.87-4.79-2-9.52-3.3-14.23-.62-2.36-1.29-4.7-2-7S323.69,125.18,322.91,122.86Z"/><path class="cls-8" d="M311.91,179.86a130.64,130.64,0,0,1,5,13.81q2.12,7,3.54,14.25a113.18,113.18,0,0,1,1.78,14.59,63.15,63.15,0,0,1-1,14.63l.32-3.65.08-.91v-.91l0-1.83,0-1.82c0-.61,0-1.22-.07-1.82-.07-1.22-.08-2.43-.19-3.64a128.78,128.78,0,0,0-2-14.45c-.87-4.79-2-9.52-3.3-14.23-.62-2.36-1.29-4.7-2-7S312.69,182.18,311.91,179.86Z"/><path class="cls-8" d="M270.51,295.88a58.54,58.54,0,0,1-.48,9.65,60.87,60.87,0,0,1-1.93,9.5,45.47,45.47,0,0,1-3.68,9c-.39.71-.86,1.38-1.29,2.07-.22.34-.42.69-.67,1l-.75,1a26.7,26.7,0,0,1-3.35,3.49,33.32,33.32,0,0,0,3-3.78l.68-1c.23-.33.4-.69.6-1,.38-.7.8-1.38,1.14-2.09a58.08,58.08,0,0,0,3.4-8.91,86.84,86.84,0,0,0,2.13-9.33c.29-1.57.52-3.16.71-4.75S270.37,297.48,270.51,295.88Z"/><path class="cls-8" d="M157.84,288.55a58.54,58.54,0,0,1-.48,9.65,60.87,60.87,0,0,1-1.93,9.5,45.47,45.47,0,0,1-3.68,9c-.39.71-.86,1.38-1.29,2.07-.22.34-.42.69-.67,1l-.75,1a26.7,26.7,0,0,1-3.35,3.49,33.32,33.32,0,0,0,3-3.78l.68-1c.23-.33.4-.69.6-1,.38-.7.8-1.38,1.14-2.09a58.08,58.08,0,0,0,3.4-8.91,86.83,86.83,0,0,0,2.13-9.33c.29-1.57.52-3.16.71-4.75S157.7,290.15,157.84,288.55Z"/><path class="cls-8" d="M343.91,186.86a130.64,130.64,0,0,1,5,13.81q2.12,7,3.54,14.25a113.18,113.18,0,0,1,1.78,14.59,63.15,63.15,0,0,1-1,14.63l.32-3.65.08-.91v-.91l0-1.83,0-1.82c0-.61,0-1.22-.07-1.82-.07-1.22-.08-2.43-.19-3.64a128.78,128.78,0,0,0-2-14.45c-.87-4.79-2-9.52-3.3-14.23-.62-2.36-1.29-4.7-2-7S344.69,189.18,343.91,186.86Z"/><path class="cls-8" d="M346.25,251.25a76.53,76.53,0,0,1,2.53,10.83,81,81,0,0,1,1.08,11.1,60.76,60.76,0,0,1-.73,11.14,37,37,0,0,1-3.44,10.58q.45-1.32.92-2.62a22.06,22.06,0,0,0,.73-2.66l.35-1.33c.11-.45.16-.91.25-1.36.14-.91.33-1.81.44-2.72a78.17,78.17,0,0,0,.49-11c-.07-3.68-.42-7.35-.84-11-.21-1.83-.48-3.66-.79-5.48S346.61,253.06,346.25,251.25Z"/><path class="cls-8" d="M304.07,269.25a130.64,130.64,0,0,1,2.42,14.47q.83,7.3,1,14.66a113.19,113.19,0,0,1-.84,14.68A63.15,63.15,0,0,1,303,327.28l1-3.53.24-.88.17-.9.35-1.79.36-1.79c.1-.6.17-1.21.26-1.81.15-1.21.36-2.41.46-3.62a128.79,128.79,0,0,0,.61-14.57c0-4.87-.33-9.73-.71-14.59-.19-2.43-.44-4.86-.73-7.28S304.42,271.67,304.07,269.25Z"/><path class="cls-8" d="M328.58,251.25a130.65,130.65,0,0,1,1.67,14.57q.45,7.33.19,14.69a113.18,113.18,0,0,1-1.6,14.61,63.16,63.16,0,0,1-4.31,14l1.14-3.48.29-.87.22-.89.44-1.77.46-1.77c.13-.59.23-1.19.35-1.79.21-1.2.48-2.38.65-3.59a128.79,128.79,0,0,0,1.36-14.52c.25-4.86.18-9.74,0-14.61-.06-2.44-.18-4.87-.35-7.31S328.8,253.68,328.58,251.25Z"/><path class="cls-8" d="M360.51,310.34a130.65,130.65,0,0,1,3.2,14.32q1.22,7.24,1.74,14.58a113.19,113.19,0,0,1-.05,14.7,63.16,63.16,0,0,1-2.8,14.4l.77-3.58.2-.89.12-.91.25-1.81.27-1.8c.07-.6.1-1.21.16-1.82.09-1.21.23-2.42.27-3.64a128.79,128.79,0,0,0-.18-14.59c-.26-4.86-.85-9.7-1.5-14.53-.32-2.42-.7-4.83-1.12-7.23S361,312.73,360.51,310.34Z"/><path class="cls-8" d="M305,340.25a130.65,130.65,0,0,1,2.44,14.46q.84,7.29,1,14.66a113.18,113.18,0,0,1-.82,14.68,63.16,63.16,0,0,1-3.55,14.23l1-3.54.24-.88.17-.9.34-1.79.36-1.79c.1-.6.17-1.21.25-1.81.15-1.21.35-2.41.46-3.62a128.79,128.79,0,0,0,.59-14.57c0-4.87-.34-9.73-.73-14.59-.19-2.43-.44-4.86-.74-7.28S305.38,342.67,305,340.25Z"/><path class="cls-8" d="M337.57,308.23c.61,6.95.83,13.92.88,20.89s-.18,14-.62,20.92-1.22,13.91-2.4,20.8a126.69,126.69,0,0,1-5.11,20.28l1.35-5,.34-1.26.27-1.28.54-2.55.56-2.55.45-2.57c.28-1.72.62-3.42.85-5.15,1-6.88,1.69-13.8,2.16-20.74s.72-13.9.85-20.85q.11-5.22.05-10.44C337.74,315.19,337.67,311.71,337.57,308.23Z"/><path class="cls-8" d="M109.63,171.19c-.77,2.32-1.53,4.64-2.21,7s-1.39,4.68-2,7c-1.25,4.71-2.43,9.44-3.3,14.23a128.78,128.78,0,0,0-2,14.45c-.11,1.21-.12,2.43-.19,3.64,0,.61-.06,1.22-.07,1.82l0,1.82,0,1.83v.91l.08.91.32,3.65a63.16,63.16,0,0,1-1-14.63,113.19,113.19,0,0,1,1.78-14.59q1.43-7.21,3.54-14.25A130.64,130.64,0,0,1,109.63,171.19Z"/><path class="cls-8" d="M65.63,341.19c-.77,2.32-1.53,4.64-2.21,7s-1.39,4.68-2,7c-1.25,4.71-2.43,9.44-3.3,14.23a128.78,128.78,0,0,0-2,14.45c-.11,1.21-.12,2.43-.19,3.64,0,.61-.06,1.22-.07,1.82l0,1.82,0,1.83v.91l.08.91.32,3.65a63.16,63.16,0,0,1-1-14.63,113.19,113.19,0,0,1,1.78-14.59Q58.57,362,60.68,355A130.64,130.64,0,0,1,65.63,341.19Z"/><path class="cls-8" d="M93,363.86c-.77,2.32-1.53,4.64-2.21,7s-1.39,4.68-2,7c-1.25,4.71-2.43,9.44-3.3,14.23a128.78,128.78,0,0,0-2,14.45c-.11,1.21-.12,2.43-.19,3.64,0,.61-.06,1.22-.07,1.82l0,1.82,0,1.83v.91l.08.91.32,3.65a63.16,63.16,0,0,1-1-14.63,113.18,113.18,0,0,1,1.78-14.59q1.43-7.21,3.54-14.25A130.64,130.64,0,0,1,93,363.86Z"/><path class="cls-8" d="M124.3,367.19c-.77,2.32-1.53,4.64-2.21,7s-1.39,4.68-2,7c-1.25,4.71-2.43,9.44-3.3,14.23a128.79,128.79,0,0,0-2,14.45c-.11,1.21-.12,2.43-.19,3.64,0,.61-.06,1.22-.07,1.82l0,1.82,0,1.83v.91l.08.91.32,3.65a63.16,63.16,0,0,1-1-14.63,113.18,113.18,0,0,1,1.78-14.59q1.43-7.21,3.54-14.25A130.65,130.65,0,0,1,124.3,367.19Z"/><path class="cls-8" d="M61.81,191c-.49,2.39-1,4.79-1.35,7.2s-.82,4.81-1.14,7.23c-.67,4.83-1.27,9.67-1.55,14.53a128.79,128.79,0,0,0-.23,14.58c0,1.22.17,2.42.26,3.64.05.61.09,1.21.15,1.82l.26,1.8.24,1.81.12.91.19.89.76,3.58a63.16,63.16,0,0,1-2.75-14.41,113.19,113.19,0,0,1,0-14.7q.55-7.33,1.79-14.58A130.65,130.65,0,0,1,61.81,191Z"/><path class="cls-8" d="M220.33,242.25a1.25,1.25,0,0,0,0-2.5,1.25,1.25,0,0,0,0,2.5Z"/><path class="cls-8" d="M233,236.92a1.25,1.25,0,0,0,0-2.5,1.25,1.25,0,0,0,0,2.5Z"/><path class="cls-8" d="M229.67,250.25a1.25,1.25,0,0,0,0-2.5,1.25,1.25,0,0,0,0,2.5Z"/><path class="cls-8" d="M175,244.25a1.25,1.25,0,0,0,0-2.5,1.25,1.25,0,0,0,0,2.5Z"/><path class="cls-8" d="M186.33,251.58a1.25,1.25,0,0,0,0-2.5,1.25,1.25,0,0,0,0,2.5Z"/><path class="cls-8" d="M174.33,254.25a1.25,1.25,0,0,0,0-2.5,1.25,1.25,0,0,0,0,2.5Z"/></g></svg>