<svg xmlns="http://www.w3.org/2000/svg" viewBox="0 0 1661.67 479.9"><defs><style>.cls-1,.cls-10,.cls-13{fill:#f2f2f2;}.cls-1,.cls-13{stroke:#f2f2f2;stroke-width:2px;}.cls-1,.cls-13,.cls-2,.cls-3,.cls-4,.cls-5,.cls-7{stroke-miterlimit:10;}.cls-2{fill:#593320;}.cls-2,.cls-3{stroke:#1d1d1b;}.cls-3,.cls-5{fill:none;}.cls-4{fill:#8c5b3b;}.cls-4,.cls-5,.cls-7{stroke:#000;}.cls-6{fill:#0b0c0d;}.cls-7{fill:#d6ab83;}.cls-8,.cls-9{fill:#1d1d1b;}.cls-9{opacity:0.15;}.cls-11{fill:#683d2a;}.cls-12{fill:#87492a;}.cls-13{font-size:172.49px;font-family:PatrickHand-Regular, Patrick Hand;}</style></defs><title>Prancheta 5</title><g id="Camada_3" data-name="Camada 3"><path class="cls-1" d="M780.87,203l-2.53,2.79-67.47,74.54s56,69.33,60,70.67,84.67-6,84.67-6l48-37.33,18.67-38,13.33-66L928.2,177l-69.33-8.67-44,13.33Z"/><path class="cls-2" d="M1223.53,144.91a19.39,19.39,0,0,0-1.79,1.34c-3.18,2.65-18.85,13.12-66.1,11.15-54-2.25-113.25,66-113.25,66s-2.25-16.5.75-23.5-25,32.75-26.25,44.25l-.11-.28s-5.39-12.22-2.64-33.22l-22.75,44s0-.48.08-1.34c.35-5.9,1.41-29.59-3.25-36-3.16-4.34-6.78-12.31-9.28-20l-3-14L1213,88.23a10.12,10.12,0,0,1,10.58,1.86C1234.07,99.63,1255.13,124,1223.53,144.91Z"/><path class="cls-3" d="M916.52,157.1c-2.17-10.09-6.19-18.31-13.13-21.78"/><path class="cls-4" d="M684.89,442.32c-29.67-6-10.33-66-10.33-66a331,331,0,0,0,3.15-33.91c4,1.83,6.68,2.74,6.68,2.74-.73,14.54,13.36,27.92,14.21,28.71-7-8.75-.46-22.71-.46-22.71,1,26.33,28.86,34.74,29.73,35-10.25-6.42-11.36-24.89-11.47-30.1.72,10.25,16.23,26.58,16.73,27.1-4.73-9.75,4.51-30,4.51-30,.6,5.26,4.16,11.14,7.72,15.85-2.52,5.23-5.27,9.77-8.14,12.65a93.25,93.25,0,0,0,13.34-6.44c.71.78,1.32,1.41,1.76,1.87a2.41,2.41,0,0,0,.81.81l-.81-.81a6.77,6.77,0,0,1-.87-2.39,56.81,56.81,0,0,0,10.52-8c1,11.75,2,24.72,3.59,38.91C770.89,454.32,714.56,448.32,684.89,442.32Z"/><path class="cls-3" d="M915.06,220.15c-2.84,13.17-.84,26.83-.84,26.83a180.87,180.87,0,0,0-7,34.35l-.32-4a25.11,25.11,0,0,0-6.26,2.36c-12.8,6.29-33.18,21.16-55.12,4.12-6.78-5.26-13.71-13.58-20.62-26.15,0,0,26.26-21.88,20.8-34.69,12.63-4,18.7-3.81,18.7-3.81s21.33,5.2,38.88-.72a33.68,33.68,0,0,0,13.42-8.06C916.11,214.61,915.52,218,915.06,220.15Z"/><path class="cls-4" d="M975.22,417.32c-21,21-68.66,7.33-69-20.34s5-46,5-46,3.27-10.06-1-31.89v0l-3-37.7h0a180.87,180.87,0,0,1,7-34.35s-2-13.66.84-26.83c.46-2.14,1-5.54,1.63-9.78a28.81,28.81,0,0,0,2.87-3.39s.07-.1.1-.16c3.55-5,5.86-11.53,6.23-20.17.72-17-3.58-25.54-9.37-29.55-10.24-7.09-25.13,0-25.13,0L737.7,240.83,672.91,276.1a134.4,134.4,0,0,0-4.35-16.78C648.89,233,665.22,188,665.22,188c.34-77.33,43-106.66,43-106.66,110.34-67,155.17-38.67,207.17-15.42s48.75,70,48.75,70c15.5,15,11.75,47.42,11.75,47.42.13,3.67,1.33,8.79,3,14,2.5,7.64,6.12,15.61,9.28,20,4.66,6.4,3.6,30.09,3.25,36,0,.86-.08,1.34-.08,1.34s-7.5,54-1.17,69.33S996.22,396.32,975.22,417.32Z"/><path class="cls-5" d="M758.22,132.32C731.56,169.65,738.56,237,738.56,237s-.36,1.41-.86,3.85"/><path class="cls-6" d="M845.69,223c5.46,12.81-20.8,34.69-20.8,34.69l-.8-.6c-8.39-6.35-14.23-11.76-18.09-16.37C823.05,231.25,836.22,226,845.69,223Z"/><path class="cls-3" d="M794.28,294.32c5.24,4.36,36.43,27,65.86-3.3"/><path class="cls-7" d="M910.22,319.32s-3-.67-3.33,9.33S897.56,349,897.56,349c2.33-5-3.34-9.66-3.34-9.66-8.66,7-17.66,34.33-17.66,34.33,2-19.67-6.67-21.67-6.67-21.67-14,5-23,33.34-23,33.34,0-12-15-22-15-22C819.22,368.65,815.56,399,815.56,399c-.67-15.33-17.34-28.66-17.34-28.66-6.66,2.33-7.66,34-7.66,34C775.22,398,782.22,357,782.22,357c-11.66,13.67-12,34.67-12,34.67-8-4.81-2.15-33.35-1.69-35.54-.89,3.9-3.36,7.48-6.56,10.63a56.81,56.81,0,0,1-10.52,8l-.89.52a93.25,93.25,0,0,1-13.34,6.44c2.87-2.88,5.62-7.42,8.14-12.65a180.61,180.61,0,0,0,8.78-22.91c1.61-5.08,2.85-9.49,3.6-12.28.53-2,.82-3.16.82-3.16-.43.37-.85.71-1.28,1a.13.13,0,0,1-.06.05,16.36,16.36,0,0,1-10.61,3.44,1.16,1.16,0,0,1-1-1.7c2-4,2.52-11.38,2.38-19.29,0-2.27-.14-4.58-.27-6.86,0-.39,0-.77-.07-1.16s0-.62-.07-.94,0-.62-.07-.93c-.13-1.55-.27-3.1-.44-4.6,0-.3-.06-.6-.1-.9s-.07-.6-.1-.89l-.18-1.52c-.09-.65-.17-1.28-.25-1.91s-.15-1.09-.23-1.62q-.16-1.19-.33-2.28c0-.24-.07-.48-.11-.72s-.1-.63-.15-.93-.06-.43-.1-.64c-.27-1.67-.51-3.07-.7-4.11,0-.26-.09-.5-.13-.71,0,0,0-.06,0-.08v0a.63.63,0,0,1,.9-.54c1,.56,2,1.09,3,1.61s2,1,2.91,1.48q2.18,1.08,4.26,2l1.39.62c1.32.59,2.61,1.13,3.88,1.64l1.33.53c.88.34,1.76.67,2.61,1q.65.24,1.29.45l1.26.42,1.25.39.12,0c1.2.37,2.37.7,3.52,1l.1,0c.76.19,1.51.37,2.25.53l1.14.24c.76.15,1.51.28,2.24.4h0a44.41,44.41,0,0,0,7.91.59c.23,0,.45,0,.68,0l1.31-.07-1.22.28s3,27-3,31c0,0,7-.33,15.33-12.33,0,0,5.34,16,3,20.67,0,0,10.34-3.67,19.67-24,0,0,4,15.33,11.33,16,0,0,.67-7.67,6.67-12.67,0,0,11-3,14.33,4.33,0,0,20.67-29.66,31.34-26.33,0,0,5,4.32,1.34,8,.44-.35,15.23-12.13,13.73-21a25.11,25.11,0,0,1,6.26-2.36l.32,4h0l3,37.7v0Z"/><path class="cls-3" d="M768.53,356.11s0,0,0,0l0-.11"/><path class="cls-4" d="M748,314.17a67.33,67.33,0,0,1-13.63-10c-7.85-7.85-.33-14.34,2.51-16.35l.27-.19.16-.11c.35-.23.56-.35.56-.35,1.89-1.5,3.92-2.94,5.81-4.37a.61.61,0,0,1,1,.37,1.61,1.61,0,0,0,0,.19v0s0,0,0,.08c0,.21.08.45.13.71.19,1,.43,2.44.7,4.11,0,.21.07.42.1.64s.1.61.15.93.07.48.11.72q.16,1.1.33,2.28c.08.53.15,1.07.23,1.62s.16,1.26.25,1.91l.18,1.52c0,.29.07.59.1.89s.07.6.1.9c.17,1.5.31,3,.44,4.6,0,.31,0,.62.07.93s.05.63.07.94.05.77.07,1.16C747.88,309.59,748,311.9,748,314.17Z"/><path class="cls-3" d="M886.9,300.64c3.65-3.67-1.34-8-1.34-8C874.89,289.32,854.22,319,854.22,319c-3.33-7.33-14.33-4.33-14.33-4.33-6,5-6.67,12.67-6.67,12.67-7.33-.67-11.33-16-11.33-16-9.33,20.33-19.67,24-19.67,24,2.34-4.67-3-20.67-3-20.67-8.33,12-15.33,12.33-15.33,12.33,6-4,3-31,3-31l1.22-.28h0l6.14-1.38,4.72-1c21.84-8.53,25.89-35.63,25.89-35.63,6.91,12.57,13.84,20.89,20.62,26.15,21.94,17,42.32,2.17,55.12-4.12C902.13,288.51,887.34,300.3,886.9,300.64Z"/><path class="cls-3" d="M824.89,257.65s-4,27.1-25.89,35.63l-4.72,1-6.14,1.38h0l-1.31.07c-.23,0-.45,0-.68,0a44.41,44.41,0,0,1-7.91-.59h0c-.73-.12-1.48-.25-2.24-.4l-1.14-.24c-.74-.16-1.49-.34-2.25-.53l-.1,0c-1.15-.29-2.32-.62-3.52-1l-.12,0-1.25-.39-1.26-.42q-.64-.21-1.29-.45c-.85-.3-1.73-.63-2.61-1l-1.33-.53c-1.27-.51-2.56-1-3.88-1.64l-1.39-.62q-2.09-1-4.26-2c-1-.47-1.93-1-2.91-1.48s-2-1.05-3-1.61l-.3-.16a.63.63,0,0,1-.08-1C765.59,265.87,783,254.07,798,245.25l1.46-.85,1.76-1,1.62-.93,3.19-1.78h0c3.86,4.61,9.7,10,18.09,16.37Z"/><path class="cls-2" d="M925.89,186.65c-.37,8.64-2.68,15.21-6.23,20.17,0,.06-.07.11-.1.16a28.81,28.81,0,0,1-2.87,3.39,33.68,33.68,0,0,1-13.42,8.06c-17.55,5.92-38.88.72-38.88.72s-6.07-.15-18.7,3.81c-9.47,3-22.64,8.29-39.69,17.72h0l-3.19,1.78-1.62.93-1.76,1-1.46.85a489.31,489.31,0,0,0-53.61,36.6c-2.1,1.63-3.07,2.59-5.23,4.3l-1.79,1.35-.16.11-.27.19c-2.84,2-10.36,8.5-2.51,16.35a67.33,67.33,0,0,0,13.63,10c.14,7.91-.39,15.31-2.38,19.29a1.16,1.16,0,0,0,1,1.7,16.36,16.36,0,0,0,10.61-3.44.13.13,0,0,0,.06-.05c.43-.31.85-.65,1.28-1,0,0-.29,1.17-.82,3.16-.75,2.79-2,7.2-3.6,12.28A180.61,180.61,0,0,1,745.36,369c-3.56-4.71-7.12-10.59-7.72-15.85,0,0-9.24,20.24-4.51,30-.5-.52-16-16.85-16.73-27.1,0-.89,0-1.39,0-1.39a9.23,9.23,0,0,0,0,1.39c.11,5.21,1.22,23.68,11.47,30.1-.87-.25-28.75-8.66-29.73-35,0,0-6.49,14,.46,22.71-.85-.79-14.94-14.17-14.21-28.71,0,0-2.68-.91-6.68-2.74-8-3.68-21.47-11.07-29.32-22.26,0,0-15-22.5,7-34.5l17.52-9.55,64.79-35.27,153.69-83.68s14.89-7.14,25.13,0C922.31,161.11,926.61,169.67,925.89,186.65Z"/><path class="cls-3" d="M716.4,356a9.23,9.23,0,0,1,0-1.39S716.38,355.15,716.4,356Z"/><path class="cls-3" d="M753.13,377.89a2.41,2.41,0,0,1-.81-.81Z"/><path class="cls-3" d="M752.32,377.08c-.44-.46-1-1.09-1.76-1.87l.89-.52A6.77,6.77,0,0,0,752.32,377.08Z"/><path class="cls-8" d="M759.23,182.65c3.8.79,7.48,1.51,11.17,2.07s7.36,1,11,1.31c.92.09,1.84.17,2.76.19l2.77.15c1.85,0,3.7.12,5.56,0,3.74.05,7.45-.32,11.35-.43a37.79,37.79,0,0,1-11.07,3.56,47.37,47.37,0,0,1-5.83.62,53.5,53.5,0,0,1-5.86-.14,49.17,49.17,0,0,1-11.46-2.25A36.87,36.87,0,0,1,759.23,182.65Z"/><path class="cls-8" d="M781.23,127.32a40.53,40.53,0,0,1,9.13,3.09,45.46,45.46,0,0,1,8.31,5,41.57,41.57,0,0,1,3.67,3.23,31.67,31.67,0,0,1,3.15,3.75,25.82,25.82,0,0,1,2.4,4.26,20.24,20.24,0,0,1,1.33,4.66,35.38,35.38,0,0,0-2.2-4.21,36.36,36.36,0,0,0-2.77-3.76,44.81,44.81,0,0,0-6.81-6.35,74.44,74.44,0,0,0-7.82-5.21C786.91,130.21,784.11,128.73,781.23,127.32Z"/><path class="cls-8" d="M869.89,121.32c-2.37,1.9-4.76,3.73-7.13,5.57s-4.71,3.69-7,5.63c-1.15.94-2.25,1.94-3.34,2.95s-2.13,2.05-3.15,3.12c-2,2.17-3.88,4.48-4.74,7.4a10.67,10.67,0,0,1,1.1-4.47,21.68,21.68,0,0,1,2.44-3.94A43,43,0,0,1,854.5,131a68,68,0,0,1,7.37-5.38A56.15,56.15,0,0,1,869.89,121.32Z"/><path class="cls-3" d="M878.89,187.65s25.5-9.5,25,8-.62,21.88-.62,22.88"/><path class="cls-3" d="M894.22,174.65s15.34-12.67,21-.33c5.55,12.08,6,29.6,4.44,32.5"/><line class="cls-3" x1="978.94" y1="197.37" x2="975.89" y2="183.32"/><path class="cls-9" d="M753.62,284.81s37-15.75,47-21.25,43.5-9,43.5-9,52-3.75,56.5-3.75,21.5-5,27.25-11.25,13-27.5,6.5-35.25-8.5-13.75-8.5-13.75-1,19.25-19,27.75-43.5.25-43.5.25-46.75,3.25-115.25,61.25c0,0-15.25,8.5-16,16.5Z"/><path class="cls-10" d="M758.31,167.16c-5.05,4.83-8.66,12.87-10.09,22.17-1.58,10.35-2.76,23.91.82,29,3.9,5.54,11.94,1.82,17.24-1.58a29,29,0,0,0,8-8.16c4.45-6.51,12.88-18,17.34-18.75a8.69,8.69,0,0,0,4.07-1.72c4.93-3.87,13.63-13.66,2.1-28.79C787,145.14,768.67,157.24,758.31,167.16Z"/><path class="cls-9" d="M764.62,186.06s19,2.63,35.25,1.13c0,0,2.5,3.13-5.25,3.89S764.62,186.06,764.62,186.06Z"/><path class="cls-9" d="M809,151.19c-3.5-15.75-27.87-24-27.87-24Z"/><path class="cls-9" d="M845,145.44s14.38-22.13,24.38-24C869.37,121.44,855.37,149.31,845,145.44Z"/><path class="cls-9" d="M794.37,293.81s32.5,29.75,65-2.75c0,0,4.75,5.5-4,10.75s-15.75,11-22,10.25c-5.06-.61-13.41-4.17-20-5.23a17.32,17.32,0,0,1-8.57-4Z"/><path class="cls-9" d="M786,326.08s5.87-2.11,13.31-10.45c0,0,2.41,3.9,1.12,4.9S791.39,325.6,786,326.08Z"/><path class="cls-9" d="M822.2,311.81s-.17,17.83-14.67,23.67c0,0-1,.9-5.48.46C802.05,335.94,820.22,319.75,822.2,311.81Z"/><path class="cls-9" d="M834.37,327.06s6.75-10.5,8.75-10.5,1.25-2.75,1.25-2.75l-4.5.63-4.12,4.88S832.87,324.31,834.37,327.06Z"/><path class="cls-9" d="M854.12,319.69s28.88-26.62,31-25.12a27.11,27.11,0,0,1,3.25,2.63l-2.75-4.75-4.12.25-5.12,2.38-17.12,16.63Z"/><path class="cls-9" d="M818.62,275.39l1.75-3,4.33-12.75-2.83,14s-2.5,11.42-7.42,16.33-18.92,4.67-18.92,4.67S814.62,287,818.62,275.39Z"/><path class="cls-9" d="M825.37,258.19s2.88,17.13,6.88,19.88S844,283.19,844,283.19l-15-19.25Z"/><path class="cls-11" d="M730.87,295.31s-9.5-13.25-2.25-16.75,14-8.25,20.25-10.75,12.5-10.75,16.75-13,14.75-10.75,17.25-13.5,14-8.5,17.5-8.5,6.5-1.5,10.25-3.25,8.25-8.5,15.5-11,11.5-5.25,17-5.25,9.25,1,10.5,2,1.75,5,1.75,5l-6.42,1.58-13.67,4.67L830,228.89l-8.92,3.75-6.67,3.25-10.58,5.75-15.42,9.25L764.62,267l-9.42,6.75-14.42,10.92-4.42,3.5-3,2.25-1.42,2.5Z"/><path class="cls-11" d="M727.62,372.31s-.87-11.62,6.38-17.87,4.75-2.87,4.75-2.87-.25,4.75,3.75,9.88c0,0-.75-7.25,2.13-9.12,2.16-1.41-5.6-7.59-9.62-10.6a15.22,15.22,0,0,1-3-3.08c-2.18-2.89-13.94-16.75-41.89-.45-.25.15-3.25,11.75-.25,17.5s2.88,9,2.88,9,1.75-14.87,4.5-18.75c0,0,3,.75,4,5.88s3.63,16.88,10.13,22.13,8,6.88,9,7-7-9.12-6.87-19.25,3.13-10.12,3.13-10.12,1,14.5,10.5,20.75"/><path class="cls-11" d="M987.87,206s8.33,23,6,36,19.33-36.33,19.33-36.33,1.33,15.33,3.33,21.33a19.54,19.54,0,0,1,.21,11.33l22.63-40.12s7.63-6.62,6.63,1.13-1.87,20.25-1.87,20.25,10-15.5,21.75-23.37,12.5-14.75,12.5-14.75-4.75-8.12-15.12-5.25-32.57,12.94-35.75,16.13c-.37.38-3.75,12.5-11.75,12S986.49,192.27,987.87,206Z"/><path class="cls-11" d="M1178.87,107.06s37.25-5,39.25,3.75,4.5,16,.25,20.75-1.5,8.5-16.5,10.25-24.5,5-27.75-7.5-8.75-21-1-25,7.5-1.25,7.5-1.25"/><path class="cls-9" d="M880.87,187.19s16.88-6.5,21,1.38,1.13,29.5,1.13,29.5,3.13-2.75,3.88-5.75-.37-21-2.12-23.5-4.87-6.12-7.62-6.37S880.87,187.19,880.87,187.19Z"/><path class="cls-9" d="M896.2,172.89s7-7.25,9.5-6.25c0,0,10-2.42,12.75,9.5s2.83,28.25,2.83,28.25l-1,1.25v-2.83l.17-2.33v-2.25l.08-2.58-.75-2.67-.67-5.92-.5-4.33-.92-2.83-1.42-3.75-1.25-2.5-1.25-1.92-2.17-2-1.42-.83-1.58-.42-4.5.42-1.67.58-2.75,1.42Z"/><path class="cls-9" d="M1198.28,124s13.67-7.42,17.58.5c3.13,6.33-1.35,19.52-3.28,24.56-.44,1.15,1.16,2.09,1.86,1.07a1.86,1.86,0,0,0,.17-.3,51.47,51.47,0,0,0,1.67-5.83l1-4.22v-.06c.09-.51,1.24-7.32,1.16-7.72s0-3.31,0-3.83a1,1,0,0,0,0-.17l-.61-4.35a1.09,1.09,0,0,0-.25-.55l-1.9-2.24a1.09,1.09,0,0,0-.56-.35l-4.21-1.05-.24,0-4-.08a1.09,1.09,0,0,0-.31,0l-5,1.37a1.09,1.09,0,0,0-.52.32Z"/><path class="cls-9" d="M1208.62,102.75s12.88-2.12,16,2.19,2.88,6,2.88,6l.06,18.69L1226.24,143a4.87,4.87,0,0,0,1.94-2.5,56,56,0,0,0,.94-6.44c.13-2.25.19-2.5.25-5.62s-.12-4.38-.12-6.63-.5-4.69,0-6.19a9.27,9.27,0,0,0,.81-4.12,10.49,10.49,0,0,0-1.69-6.31c-1.44-2.25-1.87-3.31-4.31-3.69a52,52,0,0,0-6.87-.81c-1.87,0-8.94,2-8.94,2"/><path class="cls-9" d="M879.2,348c-3.74-.47,6.17-4.5,8.17-7.83s3.33-8.83,4.17-12.5a47,47,0,0,0,.67-10.33c0-2.5-1.33-6.33-1.33-3.33S881.87,348.31,879.2,348Z"/><path class="cls-12" d="M696.37,137.06c-7.25,2-20,18.75-17.5,24.25s-5,19.5-3.75,35.25,3,22.25,8.25,29.75,1.75,12.75,16.75,15.25,25.75,5.75,29.5,0,5.25-7.25,5.5-18.25.25-10.5-2.5-24.5-4-17.25-.5-29,8.5-17.25,6-27-.75-14.75-13.75-16-25.75,4.75-27.5,8.25S696.37,137.06,696.37,137.06Z"/><path class="cls-12" d="M684.87,177.81c-5.75,2.5-14.75,7.5-17,13.25s-5.5,21.25-5.25,26.25,1.75,26.25,4.5,30.5,5,14.75,5.75,15.25,5.5,5.75,11.5,2.25,6.25-5,11.75-10.5,15.5-6.5,19.75-8.25,10.75-4.5,12.25-4.75,4.5.25,5.5-.5,4.25-3.5,4.25-6.25-.75-2.75-3.5-13-9-19.5-8.75-25.75-39.75-18.25-39.75-18.25Z"/><path class="cls-12" d="M687.12,377.56c-4.25,12-9.5,44-4.25,48s1.75,6.5,16.75,8,15.5,5,31.75-1.75,21.25,1.75,25-11,7.25-11.5,4-23.25-5.25-17-7.75-18.25-2.75-5-7.25-.5-5,5.25-9.75,9.5-15,10.25-17.75,8-11-11.5-16-16.25S687.12,377.56,687.12,377.56Z"/><path class="cls-12" d="M926.87,156.31s-3.5,17,3.5,21,14.5,32,11,41.5-2,18.5-9.5,36.5-18,13.5-15,32-5.5,43.5,2,60,8,38.5,23,43.5,23,9,29.5,3,8-2.5,11-16.5,4-14,3-29,0-9.5-5.5-26.5-9.5-15.5-6-35,9-8,8-36-5.5-39-7.5-47,0-26.5-10.5-42.5-19.5-15.5-27.5-16.5S926.87,156.31,926.87,156.31Z"/><path class="cls-3" d="M1223.53,144.91a19.39,19.39,0,0,0-1.79,1.34c-3.18,2.65-18.85,13.12-66.1,11.15-54-2.25-113.25,66-113.25,66s-2.25-16.5.75-23.5-25,32.75-26.25,44.25l-.11-.28s-5.39-12.22-2.64-33.22l-22.75,44s0-.48.08-1.34c.35-5.9,1.41-29.59-3.25-36-3.16-4.34-6.78-12.31-9.28-20l-3-14L1213,88.23a10.12,10.12,0,0,1,10.58,1.86C1234.07,99.63,1255.13,124,1223.53,144.91Z"/><path class="cls-3" d="M916.52,157.1c-2.17-10.09-6.19-18.31-13.13-21.78"/><path class="cls-3" d="M684.89,442.32c-29.67-6-10.33-66-10.33-66a331,331,0,0,0,3.15-33.91c4,1.83,6.68,2.74,6.68,2.74-.73,14.54,13.36,27.92,14.21,28.71-7-8.75-.46-22.71-.46-22.71,1,26.33,28.86,34.74,29.73,35-10.25-6.42-11.36-24.89-11.47-30.1.72,10.25,16.23,26.58,16.73,27.1-4.73-9.75,4.51-30,4.51-30,.6,5.26,4.16,11.14,7.72,15.85-2.52,5.23-5.27,9.77-8.14,12.65a93.25,93.25,0,0,0,13.34-6.44c.71.78,1.32,1.41,1.76,1.87a2.41,2.41,0,0,0,.81.81l-.81-.81a6.77,6.77,0,0,1-.87-2.39,56.81,56.81,0,0,0,10.52-8c1,11.75,2,24.72,3.59,38.91C770.89,454.32,714.56,448.32,684.89,442.32Z"/><path class="cls-3" d="M915.06,220.15c-2.84,13.17-.84,26.83-.84,26.83a180.87,180.87,0,0,0-7,34.35l-.32-4a25.11,25.11,0,0,0-6.26,2.36c-12.8,6.29-33.18,21.16-55.12,4.12-6.78-5.26-13.71-13.58-20.62-26.15,0,0,26.26-21.88,20.8-34.69,12.63-4,18.7-3.81,18.7-3.81s21.33,5.2,38.88-.72a33.68,33.68,0,0,0,13.42-8.06C916.11,214.61,915.52,218,915.06,220.15Z"/><path class="cls-3" d="M975.22,417.32c-21,21-68.66,7.33-69-20.34s5-46,5-46,3.27-10.06-1-31.89v0l-3-37.7h0a180.87,180.87,0,0,1,7-34.35s-2-13.66.84-26.83c.46-2.14,1-5.54,1.63-9.78a28.81,28.81,0,0,0,2.87-3.39s.07-.1.1-.16c3.55-5,5.86-11.53,6.23-20.17.72-17-3.58-25.54-9.37-29.55-10.24-7.09-25.13,0-25.13,0L737.7,240.83,672.91,276.1a134.4,134.4,0,0,0-4.35-16.78C648.89,233,665.22,188,665.22,188c.34-77.33,43-106.66,43-106.66,110.34-67,155.17-38.67,207.17-15.42s48.75,70,48.75,70c15.5,15,11.75,47.42,11.75,47.42.13,3.67,1.33,8.79,3,14,2.5,7.64,6.12,15.61,9.28,20,4.66,6.4,3.6,30.09,3.25,36,0,.86-.08,1.34-.08,1.34s-7.5,54-1.17,69.33S996.22,396.32,975.22,417.32Z"/><path class="cls-3" d="M758.22,132.32C731.56,169.65,738.56,237,738.56,237s-.36,1.41-.86,3.85"/><path class="cls-3" d="M824.89,257.65l-.8-.6c-8.39-6.35-14.23-11.76-18.09-16.37,17-9.43,30.22-14.73,39.69-17.72C851.15,235.77,824.89,257.65,824.89,257.65Z"/><path class="cls-3" d="M794.28,294.32c5.24,4.36,36.43,27,65.86-3.3"/><path class="cls-3" d="M910.22,319.32s-3-.67-3.33,9.33S897.56,349,897.56,349c2.33-5-3.34-9.66-3.34-9.66-8.66,7-17.66,34.33-17.66,34.33,2-19.67-6.67-21.67-6.67-21.67-14,5-23,33.34-23,33.34,0-12-15-22-15-22C819.22,368.65,815.56,399,815.56,399c-.67-15.33-17.34-28.66-17.34-28.66-6.66,2.33-7.66,34-7.66,34C775.22,398,782.22,357,782.22,357c-11.66,13.67-12,34.67-12,34.67-8-4.81-2.15-33.35-1.69-35.54-.89,3.9-3.36,7.48-6.56,10.63a56.81,56.81,0,0,1-10.52,8l-.89.52a93.25,93.25,0,0,1-13.34,6.44c2.87-2.88,5.62-7.42,8.14-12.65a180.61,180.61,0,0,0,8.78-22.91c1.61-5.08,2.85-9.49,3.6-12.28.53-2,.82-3.16.82-3.16-.43.37-.85.71-1.28,1a.13.13,0,0,1-.06.05,16.36,16.36,0,0,1-10.61,3.44,1.16,1.16,0,0,1-1-1.7c2-4,2.52-11.38,2.38-19.29,0-2.27-.14-4.58-.27-6.86,0-.39,0-.77-.07-1.16s0-.62-.07-.94,0-.62-.07-.93c-.13-1.55-.27-3.1-.44-4.6,0-.3-.06-.6-.1-.9s-.07-.6-.1-.89l-.18-1.52c-.09-.65-.17-1.28-.25-1.91s-.15-1.09-.23-1.62q-.16-1.19-.33-2.28c0-.24-.07-.48-.11-.72s-.1-.63-.15-.93-.06-.43-.1-.64c-.27-1.67-.51-3.07-.7-4.11,0-.26-.09-.5-.13-.71,0,0,0-.06,0-.08v0a.63.63,0,0,1,.9-.54c1,.56,2,1.09,3,1.61s2,1,2.91,1.48q2.18,1.08,4.26,2l1.39.62c1.32.59,2.61,1.13,3.88,1.64l1.33.53c.88.34,1.76.67,2.61,1q.65.24,1.29.45l1.26.42,1.25.39.12,0c1.2.37,2.37.7,3.52,1l.1,0c.76.19,1.51.37,2.25.53l1.14.24c.76.15,1.51.28,2.24.4h0a44.41,44.41,0,0,0,7.91.59c.23,0,.45,0,.68,0l1.31-.07-1.22.28s3,27-3,31c0,0,7-.33,15.33-12.33,0,0,5.34,16,3,20.67,0,0,10.34-3.67,19.67-24,0,0,4,15.33,11.33,16,0,0,.67-7.67,6.67-12.67,0,0,11-3,14.33,4.33,0,0,20.67-29.66,31.34-26.33,0,0,5,4.32,1.34,8,.44-.35,15.23-12.13,13.73-21a25.11,25.11,0,0,1,6.26-2.36l.32,4h0l3,37.7v0Z"/><path class="cls-3" d="M768.53,356.11s0,0,0,0l0-.11"/><path class="cls-3" d="M748,314.17a67.33,67.33,0,0,1-13.63-10c-7.85-7.85-.33-14.34,2.51-16.35l.27-.19.16-.11c.35-.23.56-.35.56-.35,1.89-1.5,3.92-2.94,5.81-4.37a.61.61,0,0,1,1,.37,1.61,1.61,0,0,0,0,.19v0s0,0,0,.08c0,.21.08.45.13.71.19,1,.43,2.44.7,4.11,0,.21.07.42.1.64s.1.61.15.93.07.48.11.72q.16,1.1.33,2.28c.08.53.15,1.07.23,1.62s.16,1.26.25,1.91l.18,1.52c0,.29.07.59.1.89s.07.6.1.9c.17,1.5.31,3,.44,4.6,0,.31,0,.62.07.93s.05.63.07.94.05.77.07,1.16C747.88,309.59,748,311.9,748,314.17Z"/><path class="cls-3" d="M886.9,300.64c3.65-3.67-1.34-8-1.34-8C874.89,289.32,854.22,319,854.22,319c-3.33-7.33-14.33-4.33-14.33-4.33-6,5-6.67,12.67-6.67,12.67-7.33-.67-11.33-16-11.33-16-9.33,20.33-19.67,24-19.67,24,2.34-4.67-3-20.67-3-20.67-8.33,12-15.33,12.33-15.33,12.33,6-4,3-31,3-31l1.22-.28h0l6.14-1.38,4.72-1c21.84-8.53,25.89-35.63,25.89-35.63,6.91,12.57,13.84,20.89,20.62,26.15,21.94,17,42.32,2.17,55.12-4.12C902.13,288.51,887.34,300.3,886.9,300.64Z"/><path class="cls-3" d="M824.89,257.65s-4,27.1-25.89,35.63l-4.72,1-6.14,1.38h0l-1.31.07c-.23,0-.45,0-.68,0a44.41,44.41,0,0,1-7.91-.59h0c-.73-.12-1.48-.25-2.24-.4l-1.14-.24c-.74-.16-1.49-.34-2.25-.53l-.1,0c-1.15-.29-2.32-.62-3.52-1l-.12,0-1.25-.39-1.26-.42q-.64-.21-1.29-.45c-.85-.3-1.73-.63-2.61-1l-1.33-.53c-1.27-.51-2.56-1-3.88-1.64l-1.39-.62q-2.09-1-4.26-2c-1-.47-1.93-1-2.91-1.48s-2-1.05-3-1.61l-.3-.16a.63.63,0,0,1-.08-1C765.59,265.87,783,254.07,798,245.25l1.46-.85,1.76-1,1.62-.93,3.19-1.78h0c3.86,4.61,9.7,10,18.09,16.37Z"/><path class="cls-3" d="M925.89,186.65c-.37,8.64-2.68,15.21-6.23,20.17,0,.06-.07.11-.1.16a28.81,28.81,0,0,1-2.87,3.39,33.68,33.68,0,0,1-13.42,8.06c-17.55,5.92-38.88.72-38.88.72s-6.07-.15-18.7,3.81c-9.47,3-22.64,8.29-39.69,17.72h0l-3.19,1.78-1.62.93-1.76,1-1.46.85a489.31,489.31,0,0,0-53.61,36.6c-2.1,1.63-3.07,2.59-5.23,4.3l-1.79,1.35-.16.11-.27.19c-2.84,2-10.36,8.5-2.51,16.35a67.33,67.33,0,0,0,13.63,10c.14,7.91-.39,15.31-2.38,19.29a1.16,1.16,0,0,0,1,1.7,16.36,16.36,0,0,0,10.61-3.44.13.13,0,0,0,.06-.05c.43-.31.85-.65,1.28-1,0,0-.29,1.17-.82,3.16-.75,2.79-2,7.2-3.6,12.28A180.61,180.61,0,0,1,745.36,369c-3.56-4.71-7.12-10.59-7.72-15.85,0,0-9.24,20.24-4.51,30-.5-.52-16-16.85-16.73-27.1,0-.89,0-1.39,0-1.39a9.23,9.23,0,0,0,0,1.39c.11,5.21,1.22,23.68,11.47,30.1-.87-.25-28.75-8.66-29.73-35,0,0-6.49,14,.46,22.71-.85-.79-14.94-14.17-14.21-28.71,0,0-2.68-.91-6.68-2.74-8-3.68-21.47-11.07-29.32-22.26,0,0-15-22.5,7-34.5l17.52-9.55,64.79-35.27,153.69-83.68s14.89-7.14,25.13,0C922.31,161.11,926.61,169.67,925.89,186.65Z"/><path class="cls-3" d="M716.4,356a9.23,9.23,0,0,1,0-1.39S716.38,355.15,716.4,356Z"/><path class="cls-3" d="M753.13,377.89a2.41,2.41,0,0,1-.81-.81Z"/><path class="cls-3" d="M752.32,377.08c-.44-.46-1-1.09-1.76-1.87l.89-.52A6.77,6.77,0,0,0,752.32,377.08Z"/><path class="cls-8" d="M759.23,182.65c3.8.79,7.48,1.51,11.17,2.07s7.36,1,11,1.31c.92.09,1.84.17,2.76.19l2.77.15c1.85,0,3.7.12,5.56,0,3.74.05,7.45-.32,11.35-.43a37.79,37.79,0,0,1-11.07,3.56,47.37,47.37,0,0,1-5.83.62,53.5,53.5,0,0,1-5.86-.14,49.17,49.17,0,0,1-11.46-2.25A36.87,36.87,0,0,1,759.23,182.65Z"/><path class="cls-3" d="M781.23,127.32s23.33,7.33,28,24"/><path class="cls-3" d="M869.89,121.32s-24,14-25.33,24.67"/><path class="cls-3" d="M878.89,187.65s25.5-9.5,25,8-.62,21.88-.62,22.88"/><path class="cls-3" d="M894.22,174.65s15.34-12.67,21-.33c5.55,12.08,6,29.6,4.44,32.5"/><line class="cls-3" x1="978.94" y1="197.37" x2="975.89" y2="183.32"/><path class="cls-3" d="M1207.89,103.15s17.5-5,19.5,7-1.14,33-1.14,33"/><path class="cls-3" d="M1196.89,124.65s21.12-11.08,20,5.5c-1,14.75-5,21-5,21"/><path class="cls-8" d="M691.92,130.64,689.59,145c-.75,4.78-1.55,9.55-2.21,14.33s-1.36,9.57-2,14.37c-.28,2.4-.59,4.8-.79,7.21s-.43,4.81-.65,7.23c0-4.84.26-9.69.67-14.51s1.07-9.63,1.73-14.43,1.52-9.57,2.44-14.32S690.74,135.33,691.92,130.64Z"/><path class="cls-8" d="M705.5,178.84c-.77,2.32-1.53,4.64-2.21,7s-1.39,4.68-2,7c-1.25,4.71-2.43,9.44-3.3,14.23a128.69,128.69,0,0,0-2,14.45c-.11,1.21-.12,2.43-.19,3.64,0,.61-.06,1.22-.07,1.82l0,1.82,0,1.83v.91l.08.91.32,3.65a63.18,63.18,0,0,1-1-14.63A113.23,113.23,0,0,1,697,206.9q1.43-7.21,3.54-14.25A130.69,130.69,0,0,1,705.5,178.84Z"/><path class="cls-8" d="M728.83,130.17c-.77,2.32-1.53,4.64-2.21,7s-1.39,4.68-2,7c-1.25,4.71-2.43,9.44-3.3,14.23a128.8,128.8,0,0,0-2,14.45c-.11,1.21-.12,2.43-.19,3.64,0,.61-.06,1.22-.07,1.82l0,1.82,0,1.83v.91l.08.91.32,3.65a63.15,63.15,0,0,1-1-14.63,113.15,113.15,0,0,1,1.78-14.59q1.43-7.21,3.54-14.25A130.58,130.58,0,0,1,728.83,130.17Z"/><path class="cls-8" d="M942.78,140.17a130.69,130.69,0,0,1,5,13.81q2.12,7,3.54,14.25a113.23,113.23,0,0,1,1.78,14.59,63.18,63.18,0,0,1-1,14.63l.32-3.65.08-.91V192l0-1.83,0-1.82c0-.61,0-1.22-.07-1.82-.07-1.22-.08-2.43-.19-3.64a128.8,128.8,0,0,0-2-14.45c-.87-4.79-2-9.52-3.3-14.23-.62-2.36-1.29-4.7-2-7S943.56,142.49,942.78,140.17Z"/><path class="cls-8" d="M931.78,197.17a130.7,130.7,0,0,1,5,13.81q2.12,7,3.54,14.25a113.23,113.23,0,0,1,1.78,14.59,63.18,63.18,0,0,1-1,14.63l.32-3.65.08-.91V249l0-1.83,0-1.82c0-.61,0-1.22-.07-1.82-.07-1.22-.08-2.43-.19-3.64a128.8,128.8,0,0,0-2-14.45c-.87-4.79-2-9.52-3.3-14.23-.62-2.36-1.29-4.7-2-7S932.56,199.49,931.78,197.17Z"/><path class="cls-8" d="M890.37,313.19a58.53,58.53,0,0,1-.48,9.65,60.86,60.86,0,0,1-1.93,9.5,45.47,45.47,0,0,1-3.68,9c-.4.71-.86,1.38-1.29,2.07-.22.34-.42.69-.67,1l-.75,1a26.71,26.71,0,0,1-3.35,3.49,33.37,33.37,0,0,0,3-3.78l.68-1c.23-.33.4-.69.6-1,.38-.7.8-1.38,1.14-2.09a58.08,58.08,0,0,0,3.4-8.91,86.89,86.89,0,0,0,2.13-9.33c.29-1.57.52-3.16.71-4.75S890.23,314.8,890.37,313.19Z"/><path class="cls-8" d="M777.71,305.86a58.58,58.58,0,0,1-.48,9.65,60.91,60.91,0,0,1-1.93,9.5,45.47,45.47,0,0,1-3.68,9c-.4.71-.86,1.38-1.29,2.07-.22.34-.42.69-.67,1l-.75,1a26.71,26.71,0,0,1-3.35,3.49,33.32,33.32,0,0,0,3-3.78l.68-1c.23-.33.4-.69.6-1,.38-.7.8-1.38,1.14-2.09a58.08,58.08,0,0,0,3.4-8.91,86.77,86.77,0,0,0,2.13-9.33c.29-1.57.52-3.16.71-4.75S777.57,307.46,777.71,305.86Z"/><path class="cls-8" d="M963.78,204.17a130.7,130.7,0,0,1,5,13.81q2.12,7,3.54,14.25a113.23,113.23,0,0,1,1.78,14.59,63.18,63.18,0,0,1-1,14.63l.32-3.65.08-.91V256l0-1.83,0-1.82c0-.61,0-1.22-.07-1.82-.07-1.22-.08-2.43-.19-3.64a128.8,128.8,0,0,0-2-14.45c-.87-4.79-2-9.52-3.3-14.23-.62-2.36-1.29-4.7-2-7S964.56,206.49,963.78,204.17Z"/><path class="cls-8" d="M966.12,268.56a76.55,76.55,0,0,1,2.53,10.83,81,81,0,0,1,1.08,11.1,60.73,60.73,0,0,1-.73,11.14,37,37,0,0,1-3.44,10.58q.45-1.32.92-2.62a22.08,22.08,0,0,0,.73-2.66l.35-1.33c.11-.45.16-.91.25-1.36.14-.91.33-1.81.44-2.72a78.2,78.2,0,0,0,.49-11c-.07-3.68-.42-7.35-.84-11-.21-1.83-.48-3.66-.79-5.48S966.48,270.37,966.12,268.56Z"/><path class="cls-8" d="M923.94,286.56A130.59,130.59,0,0,1,926.36,301q.83,7.3,1,14.66a113.17,113.17,0,0,1-.84,14.68,63.17,63.17,0,0,1-3.57,14.23l1-3.53.24-.88.17-.9.35-1.79.36-1.79c.1-.6.17-1.21.26-1.81.15-1.21.36-2.41.46-3.62a128.73,128.73,0,0,0,.61-14.57c0-4.87-.33-9.73-.71-14.59-.19-2.43-.44-4.86-.73-7.28S924.29,289,923.94,286.56Z"/><path class="cls-8" d="M948.45,268.56a130.69,130.69,0,0,1,1.67,14.57q.45,7.33.19,14.69a113.14,113.14,0,0,1-1.6,14.61,63.15,63.15,0,0,1-4.31,14l1.14-3.48.29-.87.22-.89.44-1.77.46-1.77c.13-.59.23-1.19.35-1.79.21-1.2.48-2.38.65-3.59a128.81,128.81,0,0,0,1.36-14.52c.25-4.86.18-9.74,0-14.61-.06-2.44-.18-4.87-.35-7.31S948.67,271,948.45,268.56Z"/><path class="cls-8" d="M980.37,327.65a130.66,130.66,0,0,1,3.2,14.32q1.22,7.24,1.74,14.58a113.25,113.25,0,0,1-.05,14.7,63.17,63.17,0,0,1-2.8,14.4l.77-3.58.2-.89.13-.91.25-1.81.27-1.8c.07-.6.1-1.21.16-1.82.09-1.21.23-2.42.27-3.64a128.87,128.87,0,0,0-.18-14.59c-.26-4.86-.85-9.7-1.5-14.53-.32-2.42-.7-4.83-1.12-7.23S980.85,330,980.37,327.65Z"/><path class="cls-8" d="M924.9,357.56A130.67,130.67,0,0,1,927.34,372q.84,7.29,1,14.66a113.18,113.18,0,0,1-.82,14.68,63.17,63.17,0,0,1-3.55,14.23l1-3.54.24-.88.17-.9.34-1.79.36-1.79c.1-.6.17-1.21.25-1.81.15-1.21.35-2.41.46-3.62a128.74,128.74,0,0,0,.59-14.57c0-4.87-.34-9.73-.73-14.59-.19-2.43-.44-4.86-.74-7.28S925.25,360,924.9,357.56Z"/><path class="cls-8" d="M957.44,325.54c.61,6.95.83,13.92.88,20.89s-.18,14-.62,20.92-1.22,13.91-2.4,20.8a126.64,126.64,0,0,1-5.11,20.28l1.35-5,.34-1.26.27-1.28.54-2.55.56-2.55.45-2.57c.28-1.72.62-3.42.85-5.15,1-6.88,1.69-13.8,2.16-20.74s.72-13.9.85-20.85q.11-5.22.05-10.44C957.61,332.51,957.53,329,957.44,325.54Z"/><path class="cls-8" d="M729.5,188.5c-.77,2.32-1.53,4.64-2.21,7s-1.39,4.68-2,7c-1.25,4.71-2.43,9.44-3.3,14.23a128.69,128.69,0,0,0-2,14.45c-.11,1.21-.12,2.43-.19,3.64,0,.61-.06,1.22-.07,1.82l0,1.82,0,1.83v.91l.08.91.32,3.65a63.18,63.18,0,0,1-1-14.63A113.23,113.23,0,0,1,721,216.56q1.43-7.21,3.54-14.25A130.69,130.69,0,0,1,729.5,188.5Z"/><path class="cls-8" d="M685.5,358.5c-.77,2.32-1.53,4.64-2.21,7s-1.39,4.68-2,7c-1.25,4.71-2.43,9.44-3.3,14.23a128.69,128.69,0,0,0-2,14.45c-.11,1.21-.12,2.43-.19,3.64,0,.61-.06,1.22-.07,1.82l0,1.82,0,1.83v.91l.08.91.32,3.65a63.18,63.18,0,0,1-1-14.63A113.23,113.23,0,0,1,677,386.56q1.43-7.21,3.54-14.25A130.69,130.69,0,0,1,685.5,358.5Z"/><path class="cls-8" d="M712.83,381.17c-.77,2.32-1.53,4.64-2.21,7s-1.39,4.68-2,7c-1.25,4.71-2.43,9.44-3.3,14.23a128.8,128.8,0,0,0-2,14.45c-.11,1.21-.12,2.43-.19,3.64,0,.61-.06,1.22-.07,1.82l0,1.82,0,1.83v.91l.08.91.32,3.65a63.15,63.15,0,0,1-1-14.63,113.15,113.15,0,0,1,1.78-14.59q1.43-7.21,3.54-14.25A130.59,130.59,0,0,1,712.83,381.17Z"/><path class="cls-8" d="M744.17,384.5c-.77,2.32-1.53,4.64-2.21,7s-1.39,4.68-2,7c-1.25,4.71-2.43,9.44-3.3,14.23a128.91,128.91,0,0,0-2,14.45c-.11,1.21-.12,2.43-.19,3.64,0,.61-.06,1.22-.07,1.82l0,1.82,0,1.83v.91l.08.91.32,3.65a63.15,63.15,0,0,1-1-14.63,113.15,113.15,0,0,1,1.78-14.59q1.43-7.21,3.54-14.25A130.58,130.58,0,0,1,744.17,384.5Z"/><path class="cls-8" d="M681.67,208.32c-.49,2.39-1,4.79-1.35,7.2s-.82,4.81-1.14,7.23c-.67,4.83-1.27,9.67-1.55,14.53a128.75,128.75,0,0,0-.23,14.58c0,1.22.17,2.42.26,3.64.05.61.09,1.21.15,1.82l.26,1.8.24,1.81.12.91.19.89.76,3.58a63.18,63.18,0,0,1-2.75-14.41,113.25,113.25,0,0,1,0-14.7q.55-7.33,1.79-14.58A130.56,130.56,0,0,1,681.67,208.32Z"/><path class="cls-8" d="M840.2,259.56a1.25,1.25,0,0,0,0-2.5,1.25,1.25,0,0,0,0,2.5Z"/><path class="cls-8" d="M852.87,254.23a1.25,1.25,0,0,0,0-2.5,1.25,1.25,0,0,0,0,2.5Z"/><path class="cls-8" d="M849.53,267.56a1.25,1.25,0,0,0,0-2.5,1.25,1.25,0,0,0,0,2.5Z"/><path class="cls-8" d="M794.87,261.56a1.25,1.25,0,0,0,0-2.5,1.25,1.25,0,0,0,0,2.5Z"/><path class="cls-8" d="M806.2,268.89a1.25,1.25,0,0,0,0-2.5,1.25,1.25,0,0,0,0,2.5Z"/><path class="cls-8" d="M794.2,271.56a1.25,1.25,0,0,0,0-2.5,1.25,1.25,0,0,0,0,2.5Z"/><text class="cls-13" transform="translate(70.81 287.67)">POODLE</text><text class="cls-13" transform="translate(1113.27 287.67)">DOODLE</text></g></svg>